{
    "asset" : {
        "generator" : "Khronos glTF Blender I/O v1.6.16",
        "version" : "2.0"
    },
    "scene" : 0,
    "scenes" : [
        {
            "name" : "Scene",
            "nodes" : [
                0,
                1,
                2,
                3
            ]
        }
    ],
    "nodes" : [
        {
            "mesh" : 0,
            "name" : "BLS",
            "scale" : [
                4.341202735900879,
                1,
                0.8507824540138245
            ],
            "translation" : [
                0.1275641918182373,
                0,
                0.7972767353057861
            ]
        },
        {
            "name" : "Light",
            "rotation" : [
                0.16907575726509094,
                0.7558803558349609,
                -0.27217137813568115,
                0.570947527885437
            ],
            "translation" : [
                4.076245307922363,
                5.903861999511719,
                -1.0054539442062378
            ]
        },
        {
            "name" : "Camera",
            "rotation" : [
                0.483536034822464,
                0.33687159419059753,
                -0.20870360732078552,
                0.7804827094078064
            ],
            "translation" : [
                7.358891487121582,
                4.958309173583984,
                6.925790786743164
            ]
        },
        {
            "name" : "Empty",
            "rotation" : [
                0,
                0.24025070667266846,
                0,
                0.9707108736038208
            ],
            "scale" : [
                0.4093239903450012,
                0.4093239903450012,
                0.4093239903450012
            ],
            "translation" : [
                -2.1012213230133057,
                0,
                -0.012821897864341736
            ]
        }
    ],
    "materials" : [
        {
            "doubleSided" : true,
            "name" : "Material",
            "pbrMetallicRoughness" : {
                "baseColorFactor" : [
                    0.800000011920929,
                    0.800000011920929,
                    0.800000011920929,
                    1
                ],
                "metallicFactor" : 0,
                "roughnessFactor" : 0.4000000059604645
            }
        }
    ],
    "meshes" : [
        {
            "name" : "Cube",
            "primitives" : [
                {
                    "attributes" : {
                        "POSITION" : 0,
                        "NORMAL" : 1,
                        "TEXCOORD_0" : 2
                    },
                    "indices" : 3,
                    "material" : 0
                }
            ]
        }
    ],
    "accessors" : [
        {
            "bufferView" : 0,
            "componentType" : 5126,
            "count" : 1154,
            "max" : [
                0.9999999403953552,
                1.1050102710723877,
                2.2972958087921143
            ],
            "min" : [
                -1.1703845262527466,
                0.012251274660229683,
                -4.890204906463623
            ],
            "type" : "VEC3"
        },
        {
            "bufferView" : 1,
            "componentType" : 5126,
            "count" : 1154,
            "type" : "VEC3"
        },
        {
            "bufferView" : 2,
            "componentType" : 5126,
            "count" : 1154,
            "type" : "VEC2"
        },
        {
            "bufferView" : 3,
            "componentType" : 5123,
            "count" : 2298,
            "type" : "SCALAR"
        }
    ],
    "bufferViews" : [
        {
            "buffer" : 0,
            "byteLength" : 13848,
            "byteOffset" : 0
        },
        {
            "buffer" : 0,
            "byteLength" : 13848,
            "byteOffset" : 13848
        },
        {
            "buffer" : 0,
            "byteLength" : 9232,
            "byteOffset" : 27696
        },
        {
            "buffer" : 0,
            "byteLength" : 4596,
            "byteOffset" : 36928
        }
    ],
    "buffers" : [
        {
            "byteLength" : 41524,
            "uri" : "data:application/octet-stream;base64,"
        }
    ]
}
